<?xml version="1.0"?>
<svg xmlns="http://www.w3.org/2000/svg" version="1" viewBox="0 0 26 26" enable-background="new 0 0 26 26">
    <path style="text-indent:0;text-align:start;line-height:normal;text-transform:none;block-progression:tb;-inkscape-font-specification:Bitstream Vera Sans" d="M 13 0 C 5.8321429 0 0 5.8321429 0 13 C 0 20.167857 5.8321429 26 13 26 C 20.167857 26 26 20.167857 26 13 C 26 5.8321429 20.167857 0 13 0 z M 13 2 C 19.086977 2 24 6.9130231 24 13 C 24 19.086977 19.086977 24 13 24 C 6.9130231 24 2 19.086977 2 13 C 2 6.9130231 6.9130231 2 13 2 z M 11 3.1875 C 6.4 4.0875 3 8.2 3 13 C 3 17.8 6.4 21.9125 11 22.8125 C 11.1 21.8125 11.9 21 13 21 C 14 21 14.9 21.8125 15 22.8125 C 19.6 21.9125 23 17.8 23 13 C 23 8.2 19.6 4.0875 15 3.1875 C 14.9 4.1875 14 5 13 5 C 12 5 11.1 4.1875 11 3.1875 z M 6.8125 8 L 11.5 8 C 11.8 8 12 8.2 12 8.5 L 12 9.5 C 12 9.8 11.8 10 11.5 10 L 5.59375 10 C 5.89375 9.3 6.3125 8.6 6.8125 8 z M 14.5 8 L 19.1875 8 C 19.6875 8.6 20.10625 9.3 20.40625 10 L 14.5 10 C 14.2 10 14 9.8 14 9.5 L 14 8.5 C 14 8.2 14.2 8 14.5 8 z M 5.09375 12 L 11.5 12 C 11.8 12 12 12.2 12 12.5 L 12 13.5 C 12 13.8 11.8 14 11.5 14 L 5.09375 14 C 4.99375 13.7 5 13.3 5 13 C 5 12.7 4.99375 12.3 5.09375 12 z M 14.5 12 L 20.90625 12 C 20.90625 12.3 21 12.7 21 13 C 21 13.3 21.00625 13.7 20.90625 14 L 14.5 14 C 14.2 14 14 13.8 14 13.5 L 14 12.5 C 14 12.2 14.2 12 14.5 12 z M 5.59375 16 L 11.5 16 C 11.8 16 12 16.2 12 16.5 L 12 17.5 C 12 17.8 11.8 18 11.5 18 L 6.8125 18 C 6.3125 17.4 5.89375 16.7 5.59375 16 z M 14.5 16 L 20.40625 16 C 20.10625 16.7 19.6875 17.4 19.1875 18 L 14.5 18 C 14.2 18 14 17.8 14 17.5 L 14 16.5 C 14 16.2 14.2 16 14.5 16 z" overflow="visible" enable-background="accumulate" font-family="Bitstream Vera Sans"/>
</svg>
