<?xml version="1.0" standalone="no"?>
<!DOCTYPE svg PUBLIC "-//W3C//DTD SVG 20010904//EN"
 "http://www.w3.org/TR/2001/REC-SVG-20010904/DTD/svg10.dtd">
<svg version="1.0" xmlns="http://www.w3.org/2000/svg"
 width="700.000000pt" height="700.000000pt" viewBox="0 0 700.000000 700.000000"
 preserveAspectRatio="xMidYMid meet">
<metadata>
Created by potrace 1.14, written by Peter Selinger 2001-2017
</metadata>
<g transform="translate(0.000000,700.000000) scale(0.100000,-0.100000)"
fill="#000000" stroke="none">
<path d="M3278 6996 c-1 -2 -39 -6 -83 -10 -123 -9 -292 -34 -400 -58 -220
-48 -504 -136 -632 -194 -28 -13 -55 -24 -58 -24 -13 0 -309 -152 -383 -197
-145 -87 -368 -243 -434 -303 -9 -8 -41 -35 -72 -60 -65 -54 -310 -300 -385
-387 -399 -467 -677 -1064 -781 -1677 -22 -132 -25 -151 -37 -286 -15 -164 -8
-589 12 -711 2 -13 6 -46 10 -74 9 -76 16 -116 25 -160 5 -22 11 -53 14 -70
44 -242 158 -569 288 -830 227 -455 501 -801 914 -1155 83 -72 421 -310 440
-310 2 0 23 -12 45 -26 60 -38 301 -157 402 -198 175 -72 465 -162 614 -191
303 -58 431 -70 733 -70 255 0 348 8 578 46 517 85 1048 309 1472 622 52 39
100 75 107 81 6 6 26 22 45 36 85 64 254 226 388 370 8 8 47 54 86 100 460
551 732 1211 802 1940 9 101 8 493 -1 605 -62 697 -320 1333 -765 1892 -78 98
-318 348 -432 449 -121 108 -373 287 -540 384 -355 207 -809 368 -1195 426
-27 4 -57 9 -65 10 -8 2 -42 6 -76 9 -33 4 -74 9 -90 11 -32 5 -540 14 -546
10z m542 -550 c14 -2 48 -7 75 -10 43 -6 147 -23 180 -30 6 -2 37 -8 70 -15
273 -58 646 -205 857 -338 21 -12 42 -23 47 -23 5 0 11 -3 13 -7 2 -5 44 -35
93 -67 373 -244 721 -625 942 -1031 118 -215 212 -454 268 -675 75 -298 95
-478 90 -810 -2 -129 -6 -244 -8 -255 -3 -12 -8 -48 -12 -80 -44 -372 -214
-852 -411 -1157 -13 -21 -36 -57 -51 -80 -26 -41 -132 -187 -143 -198 -3 -3
-23 -27 -45 -55 -131 -166 -356 -376 -551 -517 -192 -137 -388 -246 -629 -348
-86 -36 -322 -111 -398 -126 -10 -2 -27 -6 -37 -9 -10 -3 -29 -8 -42 -10 -13
-3 -34 -7 -48 -10 -14 -2 -41 -7 -60 -10 -19 -3 -42 -8 -50 -10 -19 -5 -88
-13 -204 -25 -89 -9 -540 -6 -582 3 -12 3 -45 8 -75 12 -216 25 -511 103 -729
192 -684 281 -1244 811 -1556 1472 -75 158 -179 446 -197 546 -2 11 -7 34 -11
50 -19 81 -26 112 -30 140 -2 17 -7 46 -10 65 -26 148 -31 228 -31 465 0 271
6 343 46 560 153 823 663 1553 1389 1987 376 225 826 373 1230 404 47 4 87 8
90 11 6 5 483 -5 520 -11z"/>
<path d="M2825 6110 c-478 -124 -880 -354 -1225 -700 -415 -415 -681 -947
-766 -1530 -20 -140 -27 -541 -11 -665 19 -154 28 -204 53 -315 85 -368 240
-705 468 -1015 28 -38 62 -83 76 -99 303 -356 628 -600 1026 -769 155 -67 497
-168 512 -152 3 3 7 16 9 28 8 58 50 163 87 219 116 173 333 262 542 223 168
-31 335 -167 403 -327 17 -41 34 -102 36 -133 1 -18 52 -10 190 28 629 173
1161 564 1527 1122 184 280 320 610 386 940 39 193 47 282 47 535 0 196 -3
251 -21 390 -9 75 -52 270 -79 360 -14 47 -27 93 -30 102 -12 54 -106 272
-170 395 -298 575 -783 1016 -1381 1256 -98 40 -318 109 -384 122 -14 3 -37 7
-51 10 -25 6 -27 3 -39 -47 -57 -239 -263 -416 -502 -432 -229 -15 -466 151
-543 379 -9 28 -17 61 -18 75 -2 14 -9 26 -17 27 -8 1 -64 -11 -125 -27z m341
-1282 c55 -30 64 -65 64 -256 0 -160 -1 -171 -23 -203 -12 -19 -35 -40 -50
-47 -21 -10 -194 -13 -834 -12 -443 0 -808 2 -811 4 -5 6 89 192 140 275 43
71 139 208 168 238 17 19 43 19 666 18 587 0 652 -2 680 -17z m2062 -63 c33
-44 83 -117 111 -163 60 -96 155 -282 148 -288 -9 -9 -1614 -5 -1638 5 -13 5
-35 21 -49 36 -24 26 -25 31 -28 193 -2 91 -1 181 3 199 7 40 40 77 79 89 17
6 296 10 671 10 l642 0 61 -81z m-2068 -1013 c60 -30 70 -64 70 -250 0 -184
-9 -219 -62 -252 -32 -19 -50 -20 -914 -20 l-882 0 -12 50 c-20 82 -16 401 6
473 5 16 56 17 882 17 815 0 879 -1 912 -18z m2471 -19 c0 -21 2 -47 4 -58 23
-119 23 -349 -1 -427 -5 -17 -56 -18 -880 -18 -963 0 -924 -2 -964 62 -18 30
-20 50 -20 206 0 193 6 218 63 252 31 19 59 20 914 20 l883 0 1 -37z m-2495
-1048 c17 -3 44 -19 60 -36 l29 -30 3 -179 c3 -152 1 -185 -14 -215 -34 -72
-4 -69 -730 -70 l-651 -1 -61 81 c-77 103 -149 219 -212 344 -28 55 -50 102
-50 105 0 3 24 6 53 8 92 5 1541 -1 1573 -7z m2351 1 c3 -2 -24 -60 -58 -128
-65 -127 -189 -320 -240 -374 l-29 -30 -648 1 c-601 1 -649 2 -680 18 -54 29
-62 63 -62 251 0 133 3 172 16 200 18 36 64 63 119 68 50 5 1577 -1 1582 -6z"/>
</g>
</svg>
